<?xml version="1.0" standalone="no"?><!DOCTYPE svg PUBLIC "-//W3C//DTD SVG 1.1//EN" "http://www.w3.org/Graphics/SVG/1.1/DTD/svg11.dtd"><svg t="1689959899060" class="icon" viewBox="0 0 1024 1024" version="1.1" xmlns="http://www.w3.org/2000/svg" p-id="1374" width="32" height="32" xmlns:xlink="http://www.w3.org/1999/xlink"><path d="M511.99968 0c282.764623 0 511.99968 229.235057 511.99968 511.99968a510.079681 510.079681 0 0 1-129.791919 340.684587L739.903538 698.380364A293.183817 293.183817 0 0 0 806.399496 511.99968c0-162.598298-131.801518-294.399816-294.399816-294.399816S217.599864 349.401382 217.599864 511.99968s131.801518 294.399816 294.399816 294.399816c62.028761 0 119.577525-19.187188 167.039896-51.942368l4.863997-3.443197 155.020703 155.033503-5.823997 4.761597A509.849281 509.849281 0 0 1 511.99968 1023.99936C229.235057 1023.99936 0 794.764303 0 511.99968S229.235057 0 511.99968 0z" fill="#6B57FE" p-id="1375"></path><path d="M511.99968 294.399816c-120.179125 0-217.599864 97.420739-217.599864 217.599864s97.420739 217.599864 217.599864 217.599864 217.599864-97.420739 217.599864-217.599864-97.420739-217.599864-217.599864-217.599864z" fill="#FFBA00" p-id="1376"></path></svg>