<svg t="1612339718208" class="icon" viewBox="0 0 1024 1024" version="1.1" xmlns="http://www.w3.org/2000/svg" p-id="2039" width="13" height="13"><path d="M114.0736 546.304l751.1552-371.712-529.0496 444.7232zM951.7568 159.8976L556.0832 678.4l348.8768 58.9312 21.9648-14.592z" fill="#d81e06" p-id="2040" data-spm-anchor-id="a313x.7781069.0.i4" class="selected"></path><path d="M874.9056 216.9344l-477.6448 423.5264 99.7888 212.1728 8.6528-186.9312z" fill="#d81e06" p-id="2041" data-spm-anchor-id="a313x.7781069.0.i5" class="selected"></path><path d="M542.72 888.3712v-185.0368l10.9056-15.104 115.712 17.2544z" fill="#d81e06" p-id="2042" data-spm-anchor-id="a313x.7781069.0.i6" class="selected"></path><path d="M962.4064 96.3072c-1.8432-1.8432-4.0448-3.072-6.3488-3.84-4.0448-1.6896-8.704-1.7408-12.9536 0.2048-7.2192 3.3792-722.5856 339.6096-874.9568 410.368a27.23328 27.23328 0 0 0-15.7696 26.6752 27.09504 27.09504 0 0 0 19.2512 24.2688l253.9008 78.1312 164.4032 312.7296a16.44032 16.44032 0 0 0 14.592 8.8064c0.1024 0 0.2048-0.0512 0.3072-0.0512 0.8192 0.1024 1.6384 0.2048 2.4576 0.2048 5.4272 0 10.6496-2.6112 13.8752-7.2704l148.7872-214.8864c5.888-7.3728 10.2912-13.056 13.5168-17.5104l217.7536 38.0928c3.072 0.9728 6.2976 1.4336 9.472 1.4336 6.1952 0 12.3392-1.792 17.5616-5.3248a31.6928 31.6928 0 0 0 14.0288-25.088l24.7808-611.9424c0.0512-0.768-0.0512-1.536-0.1024-2.2528 0.4608-4.5056-1.024-9.2672-4.5568-12.7488zM852.48 169.216L332.6976 602.2144l-243.712-74.9568C217.1392 467.6096 651.4688 263.6288 852.48 169.216z m-496.9472 453.9904l481.8432-401.408-320.0512 404.7872-24.6272 30.8224-2.3552 4.7104v217.4976l-134.8096-256.4096z m289.8432 89.9584l-124.3648 179.5584v-206.8992l128 22.3744c-1.792 2.4576-3.1744 4.352-3.6352 4.9664z m266.1888 8.96v0.0512c0 0.1536 0 0.4608-0.4096 0.7168-0.3584 0.256-0.6656 0.1536-0.8192 0.1024l-1.3312-0.512-229.5296-40.1408-146.4832-26.0608 7.6288-9.6256L934.5536 153.6l-22.9888 568.5248z" fill="#333333" p-id="2043"></path></svg>