<svg t="1612340278022" class="icon" viewBox="0 0 1024 1024" version="1.1" xmlns="http://www.w3.org/2000/svg" p-id="15679" width="13" height="13"><path d="M399.3 681.8h102.3v20.4H399.3z" fill="#AFAFAF" p-id="15680"></path><path d="M399.3 692.7h102.3v20.4H399.3z" fill="#AFAFAF" p-id="15681"></path><path d="M399.3 705.1h102.3v12.2H399.3z" fill="#AFAFAF" p-id="15682"></path><path d="M384.3 685.8h6.1v27.7h-6.1z" fill="#1C1C1C" p-id="15683"></path><path d="M804 490.1h12.2c1.7 0 2.8 1.4 2.8 3v6.2c0 1.7-1.2 3-2.8 3H804c-1.7 0-2.8-1.2-2.8-3v-6.2c0-1.5 1.2-3 2.8-3z m31.8 1.7l12 2.3c1.7 0.2 2.8 1.7 2.5 3.2l-1.2 6.2c-0.2 1.4-1.7 2.5-3.4 2.3l-11.9-2c-1.7-0.3-2.5-2-2.3-3.5l0.8-6.2c0.5-1.3 2-2.5 3.5-2.3z m31 7.5l11.6 3.9c1.4 0.5 2.3 2.3 1.7 3.7l-2.3 6c-0.5 1.4-2 2.3-3.7 1.7l-11.4-4.3c-1.4-0.5-2.3-2.3-1.7-3.7l2-5.7c0.7-1.6 2.2-2.2 3.8-1.6z m29.6 12.6l10.5 6c1.4 0.8 1.7 2.5 1.2 3.9l-3.2 5.5c-0.8 1.4-2.5 1.7-3.9 1.2l-10.5-6.2c-1.4-0.8-2-2.5-1.2-3.9l3.2-5.5c0.7-1.6 2.3-1.8 3.9-1z m26.5 17.4l9.4 7.7c1.2 1.2 1.2 3 0.2 4.3l-3.9 4.9c-1.2 1.2-2.8 1.2-3.9 0.2l-9.4-8c-1.4-0.8-1.4-3-0.5-3.9l3.9-4.9c1.1-1.1 2.8-1.5 4.2-0.3z m23.3 21.8l7.7 9.4c1.2 1.4 0.8 3.2-0.2 4.3l-4.9 3.9c-1.2 0.8-2.8 0.8-3.9-0.2l-7.9-9.4c-0.8-1.4-0.8-3.2 0.5-4.3l4.5-3.9c1.4-1 3-1 4.2 0.2z m19 25.7l6.2 10.6c0.5 1.4 0.2 3.4-1.2 3.9l-5.4 3.2c-1.4 0.8-3.2 0.2-3.9-0.8l-5.9-10.8c-0.8-1.4-0.5-3.2 0.8-3.9l5.4-3.2c1.5-0.7 3.2-0.4 4 1z m14.5 28.6l4.3 11.7c0.3 1.4-0.2 3.2-1.7 3.7l-5.9 2c-1.4 0.5-3.2-0.2-3.7-1.7l-4.3-11.4c-0.5-1.7 0.2-3.2 1.7-3.7l5.9-2.3c1.5-0.5 3.1 0.3 3.7 1.7z m9.5 30.9l2 12c0.2 1.7-0.8 3.2-2.3 3.4l-6.2 1.2c-1.4 0.3-3.2-0.8-3.4-2.5l-2-12c-0.2-1.7 0.8-3.2 2.3-3.4l6.2-1.2c1.3-0.4 2.9 0.8 3.4 2.5z m2.7 31.7v12.4c0 1.7-1.2 3-2.8 3h-6.2c-1.4 0-2.8-1.2-2.8-3V668c0-1.7 1.4-3 2.8-3h6.2c1.6 0.2 2.8 1.3 2.8 3z m-0.8 32.1l-2 12.4c-0.2 1.4-2 2.5-3.4 2.3l-6.2-1.2c-1.4-0.2-2.5-1.7-2.3-3.4l2-12c0.2-1.7 2-2.5 3.4-2.3l6.2 0.8c1.5 0.2 2.6 1.9 2.3 3.4z m-7.1 31.1l-4.3 11.7c-0.5 1.4-2.3 2.3-3.7 1.7l-5.9-2.3c-1.4-0.2-2.3-2-1.7-3.7l4.3-11.4c0.5-1.4 2.3-2.3 3.7-1.7l5.9 2c1.4 0.6 2 2.3 1.7 3.7z" fill="" p-id="15684"></path><path d="M971.5 761l-6.2 10.6c-0.8 1.4-2.5 1.7-3.9 1.2l-5.5-3.2c-1.4-0.8-1.7-2.5-0.8-3.9l5.9-10.6c0.8-1.4 2.5-2 3.9-1.2l5.4 3.2c1.5 0.7 1.7 2.4 1.2 3.9z" fill="" p-id="15685"></path><path d="M953.9 787.8l-7.7 9.4c-1.2 1.2-2.8 1.2-4.3 0.2l-4.5-3.9c-1.4-1.2-1.4-3-0.5-3.9l7.9-9.4c1.2-1.4 2.8-1.4 3.9-0.5l4.9 3.9c1.1 1.1 1.5 2.8 0.3 4.2z m-21.6 23.5l-9.4 7.7c-1.4 1.2-3.2 0.8-4.3-0.2l-3.9-4.9c-0.8-1.2-0.8-3 0.5-3.9l9.4-8c1.2-0.8 2.8-0.8 3.9 0.5l3.9 4.5c1 1.4 1 3.1-0.1 4.3z m-25.5 19.1l-10.5 6.2c-1.4 0.5-3.2 0.2-3.9-1.2l-3.2-5.5c-0.8-1.4-0.3-3.2 1.2-3.9l10.5-6c1.4-0.8 3.2-0.5 3.9 0.8l3.2 5.5c0.4 1.5 0.2 3.3-1.2 4.1zM878.5 845l-11.6 4.3c-1.4 0.2-3.2-0.2-3.7-1.7l-2-6c-0.5-1.4 0.2-3.2 1.7-3.7l11.4-4.3c1.7-0.5 3.2 0.2 3.7 1.7l2.3 6c0.3 1.4-0.5 3.2-1.8 3.7z m-30.8 9.5l-12 2c-1.4 0.2-3.2-0.8-3.4-2.3l-0.8-6.2c-0.2-1.4 0.5-3.2 2.3-3.5l12-2c1.7-0.2 3.2 0.8 3.4 2.3l1.2 6.2c0.2 1.4-0.9 3.1-2.7 3.5z m-31.4 3.7H804c-1.7 0-2.8-1.4-2.8-3V849c0-1.7 1.2-3 2.8-3h12.2c1.7 0 2.8 1.2 2.8 3v6.2c0.1 1.6-1.1 3-2.7 3z m-31.8-1.7l-12-2c-1.7-0.2-2.8-2-2.5-3.4l1.2-6.2c0.2-1.4 1.7-2.5 3.4-2.3l12 2c1.7 0.2 2.8 2 2.5 3.5l-1.2 6.2c-0.3 1.3-1.8 2.5-3.4 2.2z m-31-7.1l-11.6-4.3c-1.4-0.5-2.3-2.3-1.7-3.7l2.3-6c0.5-1.4 2-2.3 3.7-1.7l11.4 4.3c1.4 0.5 2.3 2.3 1.7 3.7l-2 6c-0.6 1.4-2.4 1.9-3.8 1.7zM724 836.7l-10.5-6.2c-1.4-0.8-1.7-2.5-1.2-3.9l3.2-5.5c0.8-1.4 2.5-1.7 3.9-0.8l10.8 6c1.2 0.8 1.7 2.5 0.8 3.9l-3.2 5.5c-0.4 1.3-2.4 1.5-3.8 1zM697.2 819l-9.4-7.7c-1.2-1.2-1.2-3-0.2-4.3l3.9-4.5c1.2-1.4 2.8-1.4 4.3-0.5l9.3 8c1.2 1.2 1.2 3 0.2 3.9l-3.9 4.9c-1 1.1-2.6 1.4-4.2 0.2z m-23.3-21.8l-7.7-9.4c-1.2-1.4-0.8-3.2 0.3-4.3l4.8-3.9c1.2-0.8 3.2-0.8 3.9 0.5l7.9 9.4c0.8 1.2 0.8 3-0.2 3.9l-4.8 3.9c-1.2 1.1-3 1.1-4.2-0.1zM655 771.6l-5.9-10.6c-0.8-1.4-0.5-3.2 0.8-3.9l5.4-3.2c1.4-0.8 3.2-0.2 3.9 1.2l6.2 10.6c0.5 1.4 0.2 3.2-1.2 3.9l-5.4 3.2c-1.2 0.5-3 0.2-3.8-1.2z m-14.5-28.7l-3.9-11.7c-0.5-1.4 0-3.2 1.7-3.7l5.7-2c1.4-0.5 3.2 0.2 3.7 1.7l4.3 11.4c0.5 1.7-0.2 3.4-1.7 3.7l-5.9 2.3c-1.6 0.7-3.4-0.3-3.9-1.7z m-9.1-30.5l-2.2-12.4c-0.2-1.4 0.8-3.2 2.2-3.4l6.2-0.8c1.4-0.3 3.2 0.5 3.4 2.3l2 12c0.3 1.7-0.8 3.2-2.3 3.4l-6.2 1.2c-1.3 0.2-2.7-1-3.1-2.3z m-3.9-32.1v-12.4c0-1.7 1.4-3 2.8-3h6.2c1.7 0 2.8 1.2 2.8 3v12.4c0 1.7-1.2 3-2.8 3h-6.2c-1.4-0.2-2.8-1.3-2.8-3z m1.7-32l2.2-12c0.2-1.7 1.7-3 3.2-2.5l6.2 1.2c1.4 0.2 2.5 1.7 2.3 3.4l-2 12c-0.2 1.7-2 3-3.4 2.5l-6.2-1.2c-1.5-0.3-2.6-1.7-2.3-3.4z m7.4-31.2l3.9-11.7c0.5-1.4 2.3-2.3 3.7-1.7l5.9 2.3c1.4 0.5 2.2 2 1.7 3.7l-4.3 11.4c-0.5 1.4-2.3 2.3-3.7 1.7l-5.7-2c-1.5-0.5-2.2-2.3-1.5-3.7z m12.4-29.7l5.9-10.6c0.8-1.4 2.5-1.7 3.9-1.2l5.4 3.2c1.4 0.8 1.7 2.5 1.2 3.9l-6.2 10.8c-0.8 1.2-2.5 1.7-3.9 0.8l-5.4-3.2c-1.4-0.2-1.7-2.2-0.9-3.7z m17.3-26.9l7.7-9.4c1.2-1.2 2.8-1.2 4.3-0.2l4.8 3.9c1.2 1.2 1.2 3 0.2 4.3l-7.9 9.4c-0.8 1.2-2.8 1.2-3.9 0.2l-4.8-3.9c-1.2-1.1-1.4-2.8-0.4-4.3z m21.6-23.4l9.4-7.7c1.4-1.2 3.2-0.8 4.3 0.2l3.9 4.9c0.8 1.2 0.8 3.2-0.2 3.9l-9.3 8c-1.4 0.8-3.2 0.8-4.3-0.2l-3.9-4.9c-1.1-1.4-1.1-3 0.1-4.2z m25.6-19.1l10.5-6c1.4-0.8 3.4-0.5 3.9 0.8l3.2 5.5c0.8 1.4 0.3 3.2-0.8 3.9l-10.8 6.2c-1.4 0.5-3.2 0.2-3.9-1.2l-3.2-5.5c-0.6-1.2-0.4-3 1.1-3.7z m28.4-14.6l11.6-3.9c1.4-0.5 3.2 0 3.7 1.7l2 5.7c0.5 1.4-0.2 3.2-1.7 3.7l-11.4 4.3c-1.7 0.5-3.2-0.2-3.7-1.7l-2.3-6c-0.6-1.6 0.3-3.2 1.8-3.8z m30.5-9.1l12-2.3c1.7-0.2 3.2 0.8 3.4 2.3l1.2 6.2c0.2 1.4-0.8 3.2-2.5 3.5l-12 2c-1.7 0.2-3.2-0.8-3.4-2.3l-1.2-6.2c-0.2-1.5 1-3 2.5-3.2z" fill="" p-id="15686"></path><path d="M810.1 674.5m-96.8 0a96.8 96.8 0 1 0 193.6 0 96.8 96.8 0 1 0-193.6 0Z" fill="#F68720" p-id="15687"></path><path d="M810.1 674.5m-74.5 0a74.5 74.5 0 1 0 149 0 74.5 74.5 0 1 0-149 0Z" fill="#F68720" p-id="15688"></path><path d="M810.1 674.5m-18 0a18 18 0 1 0 36 0 18 18 0 1 0-36 0Z" fill="" p-id="15689"></path><path d="M810.1 639.6m-5.1 0a5.1 5.1 0 1 0 10.2 0 5.1 5.1 0 1 0-10.2 0Z" fill="#FCFCFC" p-id="15690"></path><path d="M845 667.5m-5.1 0a5.1 5.1 0 1 0 10.2 0 5.1 5.1 0 1 0-10.2 0Z" fill="#FCFCFC" p-id="15691"></path><path d="M775.3 666.3m-5.1 0a5.1 5.1 0 1 0 10.2 0 5.1 5.1 0 1 0-10.2 0Z" fill="#FCFCFC" p-id="15692"></path><path d="M791.6 704.7m-5.1 0a5.1 5.1 0 1 0 10.2 0 5.1 5.1 0 1 0-10.2 0Z" fill="#FCFCFC" p-id="15693"></path><path d="M831.1 704.7m-5.1 0a5.1 5.1 0 1 0 10.2 0 5.1 5.1 0 1 0-10.2 0Z" fill="#FCFCFC" p-id="15694"></path><path d="M809 567c59.2 0 107.4 48.1 107.4 107.4 0 59.2-48.1 107.4-107.4 107.4-59.4 0-107.4-48.1-107.4-107.4 0-59.3 48.1-107.4 107.4-107.4m0-69.8c-97.9 0-177.2 79.4-177.2 177.2S711.2 851.6 809 851.6s177.2-79.2 177.2-177.1S906.8 497.2 809 497.2z" fill="" p-id="15695"></path><path d="M167.7 579.4h8.9c1.2 0 2.1 1.1 2.1 2.1v4.6c0 1.2-0.9 2.1-2.1 2.1h-8.9c-1.2 0-2.1-0.9-2.1-2.1v-4.6c0-1.1 0.9-2.1 2.1-2.1z m22.9 1.3l8.6 1.6c1.2 0.1 2.1 1.2 1.7 2.2l-0.9 4.6c-0.1 1.1-1.2 2-2.5 1.6l-8.6-1.5c-1.2-0.1-1.7-1.5-1.6-2.5l0.5-4.6c0.6-0.8 1.9-1.7 2.8-1.4z m22.5 5.4l8.4 3c1.1 0.4 1.6 1.6 1.2 2.6l-1.6 4.3c-0.4 1.1-1.5 1.6-2.6 1.2l-8.3-3.2c-1.1-0.4-1.6-1.6-1.2-2.6l1.5-4.2c0.4-1.1 1.6-1.6 2.6-1.1z m21.4 8.9l7.5 4.3c1.1 0.5 1.2 2 0.9 3l-2.2 4c-0.5 1.1-1.7 1.2-2.8 0.9l-7.5-4.6c-1.1-0.5-1.5-2-0.9-3l2.2-4c0.6-0.8 1.8-1.1 2.8-0.6z m19.5 12.8l6.8 5.7c0.9 0.9 0.9 2.1 0.1 3.2l-2.8 3.6c-0.9 0.9-2.1 0.9-2.8 0.1l-6.8-5.8c-1.1-0.5-1.1-2.1-0.4-3l2.8-3.6c0.7-0.7 2-1.1 3.1-0.2z m16.8 15.8l5.7 6.8c0.9 1.1 0.5 2.2-0.1 3.2l-3.6 3c-0.9 0.5-2.1 0.5-2.8-0.1l-5.8-6.8c-0.5-1.1-0.5-2.2 0.4-3.2l3.3-3c0.9-0.8 2.1-0.8 2.9 0.1z m13.9 18.6l4.6 7.8c0.4 1.1 0.1 2.5-0.9 3l-3.8 2.2c-1.1 0.5-2.2 0.1-2.8-0.5l-4.3-7.9c-0.5-1.1-0.4-2.2 0.5-3l3.8-2.2c1-0.6 2.2-0.3 2.9 0.6z m10.4 20.8l3.2 8.4c0.1 1.1-0.1 2.2-1.2 2.6l-4.3 1.5c-1.1 0.4-2.2-0.1-2.6-1.2L287 666c-0.4-1.2 0.1-2.2 1.2-2.6l4.3-1.6c1-0.4 2.3 0.2 2.6 1.2z m6.8 22.4l1.5 8.7c0.1 1.2-0.5 2.2-1.6 2.5l-4.6 0.9c-1.1 0.1-2.2-0.5-2.5-2l-1.5-8.7c-0.1-1.2 0.5-2.2 1.6-2.5l4.6-0.9c1.2-0.1 2.4 0.7 2.5 2z m2.1 23v8.9c0 1.2-0.9 2.1-2.1 2.1h-4.6c-1.1 0-2.1-0.9-2.1-2.1v-8.9c0-1.2 1.1-2.1 2.1-2.1h4.6c1.3 0 2.1 0.9 2.1 2.1z m-0.6 23.3l-1.5 8.9c-0.1 1.1-1.5 2-2.5 1.6l-4.6-0.9c-1.1-0.1-1.7-1.2-1.6-2.5l1.5-8.7c0.1-1.2 1.5-2 2.5-1.6l4.6 0.5c1 0.4 1.7 1.7 1.6 2.7z m-5.2 22.6l-3.2 8.4c-0.4 1.1-1.6 1.6-2.6 1.2l-4.3-1.6c-1.1-0.1-1.6-1.5-1.2-2.6l3.2-8.3c0.4-1.1 1.6-1.6 2.6-1.2l4.3 1.5c1.1 0.3 1.5 1.5 1.2 2.6z" fill="" p-id="15696"></path><path d="M289.1 775.9l-4.6 7.8c-0.5 1.1-2 1.2-2.8 0.9l-3.8-2.2c-1.1-0.5-1.2-2-0.5-3l4.3-7.8c0.5-1.1 1.7-1.5 2.8-0.9l3.8 2.2c1.1 0.6 1.2 1.9 0.8 3z" fill="" p-id="15697"></path><path d="M276.4 795.4l-5.7 6.8c-0.9 0.9-2.1 0.9-3.2 0.1l-3.3-3c-1.1-0.9-1.1-2.1-0.4-3l5.8-6.8c0.9-1.1 2.1-1.1 2.8-0.4l3.6 3c1 1 1.3 2.2 0.4 3.3z m-15.6 17l-6.8 5.7c-1.1 0.9-2.2 0.5-3.2-0.1l-2.8-3.6c-0.5-0.9-0.5-2.1 0.4-3l6.8-5.8c0.9-0.5 2.1-0.5 2.8 0.4l2.8 3.3c0.7 1.1 0.7 2.3 0 3.1z m-18.6 13.9l-7.5 4.6c-1.1 0.4-2.2 0.1-2.8-0.9l-2.2-4c-0.5-1.1-0.1-2.2 0.9-3l7.5-4.3c1.1-0.5 2.2-0.4 2.8 0.5l2.2 4c0.3 1.3 0.2 2.5-0.9 3.1z m-20.5 10.6l-8.4 3.2c-1.1 0.1-2.2-0.1-2.6-1.2l-1.5-4.3c-0.4-1.1 0.1-2.2 1.2-2.6l8.3-3.2c1.2-0.4 2.2 0.1 2.6 1.2l1.6 4.3c0.4 1-0.3 2.2-1.2 2.6z m-22.3 6.8l-8.6 1.5c-1.1 0.1-2.2-0.5-2.5-1.6l-0.5-4.6c-0.1-1.1 0.4-2.2 1.6-2.5l8.6-1.5c1.2-0.1 2.2 0.5 2.5 1.6l0.9 4.6c0 1.1-0.8 2.4-2 2.5z m-22.9 2.7h-8.9c-1.2 0-2.1-1.1-2.1-2.1v-4.6c0-1.2 0.9-2.1 2.1-2.1h8.9c1.2 0 2.1 0.9 2.1 2.1v4.6c0 1-0.9 2.1-2.1 2.1z m-23.2-1.2l-8.6-1.5c-1.2-0.1-2.1-1.5-1.7-2.5l0.9-4.6c0.1-1.1 1.2-2 2.5-1.6l8.6 1.5c1.2 0.1 2.1 1.5 1.7 2.5l-0.9 4.6c-0.2 1-1.3 1.7-2.5 1.6z m-22.4-5.2l-8.4-3.2c-1.1-0.4-1.6-1.6-1.2-2.6l1.6-4.3c0.4-1.1 1.5-1.6 2.6-1.2l8.3 3.2c1.1 0.4 1.6 1.6 1.2 2.6l-1.5 4.3c-0.3 1-1.5 1.4-2.6 1.2z m-21.4-9.2l-7.5-4.6c-1.1-0.5-1.2-2-0.9-3l2.2-4c0.5-1.1 2-1.2 2.8-0.5l7.9 4.3c0.9 0.5 1.2 2 0.5 3l-2.2 4c-0.3 1.1-1.8 1.2-2.8 0.8zM90.2 818l-6.8-5.7c-0.9-0.9-0.9-2.1-0.1-3.2l2.8-3.3c0.9-1.1 2.1-1.1 3.2-0.4l6.8 5.8c0.9 0.9 0.9 2.1 0.1 3l-2.8 3.6c-0.9 0.9-2.1 1-3.2 0.2z m-17-15.8l-5.5-6.8c-0.9-1.1-0.5-2.2 0.1-3.2l3.6-3c0.9-0.5 2.2-0.5 2.8 0.4l5.8 6.8c0.5 0.9 0.5 2.1-0.1 3l-3.6 3c-1 0.6-2.1 0.6-3.1-0.2z m-13.8-18.7l-4.3-7.8c-0.5-1.1-0.4-2.2 0.5-3l3.8-2.2c1.1-0.5 2.2-0.1 2.8 0.9l4.6 7.8c0.4 1.1 0.1 2.2-0.9 3l-3.8 2.2c-0.8 0.4-2 0.2-2.7-0.9zM49 762.8l-2.8-8.4c-0.4-1.1 0-2.2 1.2-2.6l4.2-1.5c1.1-0.4 2.2 0.1 2.6 1.2l3.2 8.3c0.4 1.2-0.1 2.5-1.2 2.6l-4.3 1.6c-1.3 0.5-2.5-0.1-2.9-1.2z m-6.6-22.2l-1.6-8.9c-0.1-1.1 0.5-2.2 1.6-2.5l4.6-0.5c1.1-0.1 2.2 0.4 2.5 1.6L51 739c0.1 1.2-0.5 2.2-1.6 2.5l-4.6 0.9c-1.2 0-2.2-0.8-2.4-1.8z m-3-23.3v-9c0-1.2 1.1-2.1 2.1-2.1h4.6c1.2 0 2.1 0.9 2.1 2.1v8.9c0 1.2-0.9 2.1-2.1 2.1h-4.6c-1 0.1-2.1-0.6-2.1-2z m1.4-23.1l1.6-8.7c0.1-1.2 1.2-2.1 2.2-2l4.6 0.9c1.1 0.1 2 1.2 1.6 2.5l-1.5 8.7c-0.1 1.2-1.5 2.1-2.5 2l-4.6-0.9c-0.8-0.3-1.7-1.3-1.4-2.5z m5.3-22.8L49 663c0.4-1.1 1.6-1.6 2.6-1.2l4.3 1.6c1.1 0.4 1.6 1.5 1.2 2.6l-3.2 8.3c-0.4 1.1-1.6 1.6-2.6 1.2l-4.2-1.5c-1-0.2-1.4-1.5-1-2.6z m9.1-21.4l4.3-7.8c0.5-1.1 1.7-1.2 2.8-0.9l3.8 2.2c1.1 0.5 1.2 2 0.9 3l-4.6 7.9c-0.5 0.9-1.7 1.2-2.8 0.5l-3.8-2.2c-1.1-0.4-1.3-1.7-0.6-2.7z m12.4-19.7l5.5-6.8c0.9-0.9 2.1-0.9 3.2-0.1l3.6 3c0.9 0.9 0.9 2.1 0.1 3.2l-5.8 6.8c-0.5 0.9-2.1 0.9-2.8 0.1l-3.6-3c-0.8-0.8-0.9-2.1-0.2-3.2z m15.8-16.8l6.8-5.7c1.1-0.9 2.2-0.5 3.2 0.1l2.8 3.6c0.5 0.9 0.5 2.2-0.1 3l-6.8 5.8c-1.1 0.5-2.2 0.5-3.2-0.1l-2.8-3.6c-0.8-1-0.8-2.4 0.1-3.1z m18.5-14l7.5-4.3c1.1-0.5 2.5-0.4 2.8 0.5l2.2 4c0.5 1.1 0.1 2.2-0.5 3l-7.9 4.6c-1.1 0.4-2.2 0.1-2.8-0.9l-2.2-4c-0.2-1.1-0.1-2.2 0.9-2.9z m20.6-10.5l8.4-3c1.1-0.4 2.2 0 2.6 1.2l1.5 4.2c0.4 1.1-0.1 2.2-1.2 2.6l-8.3 3.2c-1.2 0.4-2.2-0.1-2.6-1.2l-1.6-4.3c-0.4-1 0.2-2.5 1.2-2.7z m22.3-6.6l8.6-1.6c1.2-0.1 2.2 0.5 2.5 1.6l0.9 4.6c0.1 1.1-0.5 2.2-1.7 2.5l-8.6 1.5c-1.2 0.1-2.2-0.5-2.5-1.6l-0.9-4.6c-0.4-1.2 0.3-2.3 1.7-2.4z" fill="" p-id="15698"></path><path d="M172 713m-70.3 0a70.3 70.3 0 1 0 140.6 0 70.3 70.3 0 1 0-140.6 0Z" fill="#F68720" p-id="15699"></path><path d="M172 713m-54.1 0a54.1 54.1 0 1 0 108.2 0 54.1 54.1 0 1 0-108.2 0Z" fill="#F68720" p-id="15700"></path><path d="M172 713m-21.9 0a21.9 21.9 0 1 0 43.8 0 21.9 21.9 0 1 0-43.8 0Z" fill="" p-id="15701"></path><path d="M171.2 636.5c42.3 0 76.7 34.4 76.7 76.7 0 42.3-34.4 76.7-76.7 76.7s-76.6-34.4-76.6-76.7c-0.1-42.4 34.3-76.7 76.6-76.7m0-52c-71 0-128.6 57.6-128.6 128.6s57.6 128.6 128.6 128.6 128.6-57.6 128.6-128.6-57.6-128.6-128.6-128.6z" fill="" p-id="15702"></path><path d="M668.7 317.7v-19c0-4 0.8-8.9 4-13.6 3.2-4.7 9.5-8 16.5-7.9h-1c1.4 0 2.7 0.1 4 0.1 3.6 0 7.5-1.6 8.3-2.3l1.1-3.3c0.7-0.5-0.2-7.7-0.1-13.9V138.7c-0.5-8.5 4.2-18.4 13.3-22.1 8.7-3.9 20-4.9 36.9-5V128c-16.2-0.1-26 1.4-30.1 3.5-3.7 2.2-3.5 2-4 7.4V258c0.2 9.2 2.2 23.5-3.9 27.3l-5.5 4.4c-5.9 3.8-11.8 3.8-16.2 3.8h-3c-3 0.2-2.8 0.7-3.4 1.1-0.4 0.5-1 2.3-1 4v19h-15.9v0.1z" fill="#5E524D" p-id="15703"></path><path d="M825.7 667.4c0 9.2-7.4 16.6-16.6 16.6-9.2 0-16.6-7.4-16.6-16.6s7.4-16.6 16.6-16.6c9.1 0 16.6 7.4 16.6 16.6z" fill="#D38A0A" p-id="15704"></path><path d="M816.2 667.4c0 3.9-3.2 7.1-7.1 7.1s-7.1-3.2-7.1-7.1 3.2-7.1 7.1-7.1 7.1 3.2 7.1 7.1zM200.7 701.2c28.6 37.6-13.9 80-51.4 51.4-28.6-37.6 13.9-80.1 51.4-51.4z" fill="#231C1D" p-id="15705"></path><path d="M323.9 741.1H15.2c-7.9 0-14.2-6.3-14.2-14.2 0-7.9 6.3-14.2 14.2-14.2h308.7c7.9 0 14.2 6.3 14.2 14.2-0.1 7.8-6.5 14.2-14.2 14.2z" fill="#231C1D" p-id="15706"></path><path d="M183.9 721.2c6.3 8.4-3.1 17.8-11.5 11.5-6.3-8.5 3.2-17.9 11.5-11.5z" fill="#F7C500" p-id="15707"></path><path d="M656.5 272.8l-26.2-143.7c-2.8-15.3-16.1-26.3-31.6-26.3H284.3c-14 0-25.4 11.1-25.6 25.1l-4.5 277.2H106.8c-14.3 0-26.9 9.2-31.3 22.8L44 628.9c26.9-41.2 73.5-68.4 126.4-68.4 73.2 0 134.3 52.2 148 121.4h296.4c-0.3-4.8-0.5-9.6-0.5-14.5 0-107.6 87.2-194.8 194.8-194.8 91.3 0 167.9 62.7 189 147.4V297.6c0-13.8-11.1-24.8-24.8-24.8H656.5zM590 405.1H292.4l2.2-250.7c0.1-14.8 12.1-26.7 26.9-26.7h241.4c15 0 27.1 12.1 27.1 27.1v250.3z" fill="#F68720" p-id="15708"></path><path d="M686.7 154.9h52.1v104.3h-52.1z" fill="#231C1D" p-id="15709"></path><path d="M553.7 502.3c0 3.1-4.3 5.6-9.6 5.6H347.7c-5.4 0-9.6-2.5-9.6-5.6 0-3.1 4.3-5.6 9.6-5.6h196.4c5.2 0.1 9.6 2.6 9.6 5.6z" fill="#3E4A5E" p-id="15710"></path><path d="M553.7 539.7c0 3.1-4.3 5.6-9.6 5.6H347.7c-5.4 0-9.6-2.5-9.6-5.6 0-3.1 4.3-5.6 9.6-5.6h196.4c5.2 0 9.6 2.6 9.6 5.6z" fill="#3E4A5E" p-id="15711"></path><path d="M553.7 572.7c0 3.1-4.3 5.6-9.6 5.6H347.7c-5.4 0-9.6-2.5-9.6-5.6 0-3.1 4.3-5.6 9.6-5.6h196.4c5.2 0.2 9.6 2.6 9.6 5.6z" fill="#3E4A5E" p-id="15712"></path><path d="M553.7 605.5c0 3.1-4.3 5.6-9.6 5.6H347.7c-5.4 0-9.6-2.5-9.6-5.6 0-3.1 4.3-5.6 9.6-5.6h196.4c5.2 0 9.6 2.6 9.6 5.6z" fill="#3E4A5E" p-id="15713"></path><path d="M170.4 572.7c-79.2 0-143.5 64.3-143.5 143.5H314c0-79.2-64.3-143.5-143.6-143.5z" fill="#231C1D" p-id="15714"></path><path d="M578.5 429.7H299.8c-7.2 0-13.1-5.9-13.1-13.1V137.8c0-7.2 5.9-13.1 13.1-13.1h278.7c7.2 0 13.1 5.9 13.1 13.1v278.7c0 7.3-5.9 13.2-13.1 13.2z" fill="#A5E1EF" p-id="15715"></path><path d="M343 276.4c-4.2-1.9-6.1-6.7-4.3-10.8l44.7-100.9c1.9-4.2 6.7-6.1 10.8-4.3 4.2 1.9 6.1 6.7 4.3 10.8l-44.7 100.9c-1.7 4.3-6.7 6.2-10.8 4.3zM343 393.9c-4.2-1.9-6.1-6.7-4.3-10.8l44.7-100.9c1.9-4.2 6.7-6.1 10.8-4.3 4.2 1.9 6.1 6.7 4.3 10.8l-44.7 100.9c-1.7 4.3-6.7 6.2-10.8 4.3z" fill="#E1FEFF" p-id="15716"></path></svg>