<?xml version="1.0" standalone="no"?><!DOCTYPE svg PUBLIC "-//W3C//DTD SVG 1.1//EN" "http://www.w3.org/Graphics/SVG/1.1/DTD/svg11.dtd"><svg t="1690048093234" class="icon" viewBox="0 0 1024 1024" version="1.1" xmlns="http://www.w3.org/2000/svg" p-id="56793" xmlns:xlink="http://www.w3.org/1999/xlink" width="32" height="32"><path d="M45.119595 282.097789A45.092581 45.092581 0 0 1 0.027014 236.789969V45.119594A45.092581 45.092581 0 0 1 45.119595 0.027013H236.78997a45.146391 45.146391 0 0 1 0 90.238972H90.265986V236.789969a45.092581 45.092581 0 0 1-45.146391 45.30782z" fill="#192E7A" p-id="56794"></path><path d="M236.78997 1023.972987H45.119595A45.092581 45.092581 0 0 1 0.027014 978.880406v-191.831804a45.146391 45.146391 0 1 1 90.238972 0v146.685413H236.78997a45.146391 45.146391 0 0 1 0 90.238972z" fill="#040000" p-id="56795"></path><path d="M978.880408 1023.972987h-191.831804a45.146391 45.146391 0 1 1 0-90.238972h146.685413v-146.685413a45.146391 45.146391 0 1 1 90.238972 0v191.831804a45.092581 45.092581 0 0 1-45.092581 45.092581zM978.880408 282.097789a45.146391 45.146391 0 0 1-45.146391-45.30782V90.265985h-146.685413a45.146391 45.146391 0 1 1 0-90.238972h191.831804a45.092581 45.092581 0 0 1 45.092581 45.092581V236.789969a45.092581 45.092581 0 0 1-45.092581 45.30782z" fill="#192E7A" p-id="56796"></path><path d="M342.687583 634.605544h108.641911a38.958268 38.958268 0 0 0 38.904458-38.958268V508.52927a38.904458 38.904458 0 0 0-38.904458-38.904458h-35.083965a17.703412 17.703412 0 0 0 0.376668-3.390015V432.119407H608.077333V469.624812h-35.622063a38.958268 38.958268 0 0 0-38.958268 38.904458v87.118006a38.958268 38.958268 0 0 0 38.958268 38.958268h108.80334a39.012078 39.012078 0 0 0 38.958268-38.958268V508.52927a38.958268 38.958268 0 0 0-38.958268-38.904458h-34.814916a7.371937 7.371937 0 0 0 0-1.022386V412.909322a19.156276 19.156276 0 0 0-19.156276-19.156276H531.55985V336.068981h35.137775a38.958268 38.958268 0 0 0 38.958268-38.958268V209.885087a39.012078 39.012078 0 0 0-38.958268-38.958268H458.109524A39.012078 39.012078 0 0 0 419.151256 209.885087v87.225626a38.958268 38.958268 0 0 0 38.958268 38.958268h35.083965v57.684065h-95.781377a19.156276 19.156276 0 0 0-19.156276 19.156276v53.325475a17.649602 17.649602 0 0 0 0.322859 3.390015h-35.891112a38.958268 38.958268 0 0 0-38.958268 38.904458v87.118006a39.012078 39.012078 0 0 0 38.958268 38.958268z m325.602874-51.926421h-82.651795V521.551233h82.651795zM471.077677 223.014669h82.651795V284.14256H471.077677zM355.655736 521.551233h82.651795v61.12789H355.655736zM336.66089 687.931019H228.018979a39.012078 39.012078 0 0 0-38.958269 38.958268v87.118006a38.958268 38.958268 0 0 0 38.958269 38.904459h108.641911a38.958268 38.958268 0 0 0 38.958268-38.904459v-87.118006a39.012078 39.012078 0 0 0-38.958268-38.958268z m-12.968153 113.000502H240.987131v-61.074081h82.705606zM795.981024 687.931019h-108.588101a38.958268 38.958268 0 0 0-38.958268 38.958268v87.118006a38.958268 38.958268 0 0 0 38.958268 38.904459h108.588101a38.958268 38.958268 0 0 0 38.958268-38.904459v-87.118006a39.012078 39.012078 0 0 0-38.958268-38.958268z m-12.968153 113.000502h-82.651795v-61.074081h82.651795zM566.320957 687.931019H457.679046a38.958268 38.958268 0 0 0-38.904459 38.958268v87.118006a38.904458 38.904458 0 0 0 38.904459 38.904459h108.641911a38.958268 38.958268 0 0 0 38.958268-38.904459v-87.118006a39.012078 39.012078 0 0 0-38.958268-38.958268z m-12.968153 113.000502H470.701009v-61.074081h82.651795z" fill="#27A665" p-id="56797"></path></svg>